<?xml version="1.0" encoding="UTF-8" standalone="no"?>
<!-- Created with Inkscape (http://www.inkscape.org/) -->

<svg
   xmlns:dc="http://purl.org/dc/elements/1.1/"
   xmlns:cc="http://creativecommons.org/ns#"
   xmlns:rdf="http://www.w3.org/1999/02/22-rdf-syntax-ns#"
   xmlns:svg="http://www.w3.org/2000/svg"
   xmlns="http://www.w3.org/2000/svg"
   xmlns:sodipodi="http://sodipodi.sourceforge.net/DTD/sodipodi-0.dtd"
   xmlns:inkscape="http://www.inkscape.org/namespaces/inkscape"
   width="1280"
   height="800"
   viewBox="0 0 1280 800.00001"
   id="svg2"
   version="1.1"
   inkscape:version="0.91 r13725"
   sodipodi:docname="Workplace.svg"
   inkscape:export-filename="FondoMaterial.png"
   inkscape:export-xdpi="30.0375"
   inkscape:export-ydpi="30.0375">
  <defs
     id="defs4">
    <filter
       style="color-interpolation-filters:sRGB;"
       inkscape:label="Drop Shadow"
       id="filter4167">
      <feFlood
         flood-opacity="0.498039"
         flood-color="rgb(0,0,0)"
         result="flood"
         id="feFlood4169" />
      <feComposite
         in="flood"
         in2="SourceGraphic"
         operator="in"
         result="composite1"
         id="feComposite4171" />
      <feGaussianBlur
         in="composite1"
         stdDeviation="3"
         result="blur"
         id="feGaussianBlur4173" />
      <feOffset
         dx="6"
         dy="6"
         result="offset"
         id="feOffset4175" />
      <feComposite
         in="SourceGraphic"
         in2="offset"
         operator="over"
         result="composite2"
         id="feComposite4177" />
    </filter>
    <filter
       inkscape:label="Blur Double"
       inkscape:menu="Blurs"
       inkscape:menu-tooltip="Overlays two copies with different blur amounts and modifiable blend and composite"
       style="color-interpolation-filters:sRGB;"
       id="filter4360">
      <feGaussianBlur
         stdDeviation="5"
         result="fbSourceGraphic"
         id="feGaussianBlur4362" />
      <feGaussianBlur
         stdDeviation="0.01"
         in="SourceGraphic"
         result="result1"
         id="feGaussianBlur4364" />
      <feComposite
         in2="result1"
         operator="arithmetic"
         in="fbSourceGraphic"
         k2="0.5"
         k3="0.5"
         result="result2"
         id="feComposite4366" />
      <feBlend
         in2="fbSourceGraphic"
         mode="normal"
         result="result3"
         id="feBlend4368" />
    </filter>
    <filter
       inkscape:collect="always"
       style="color-interpolation-filters:sRGB"
       id="filter4221"
       x="-0.0059994803"
       width="1.011999"
       y="-0.0060005198"
       height="1.012001">
      <feGaussianBlur
         inkscape:collect="always"
         stdDeviation="1.7149831"
         id="feGaussianBlur4223" />
    </filter>
  </defs>
  <sodipodi:namedview
     id="base"
     pagecolor="#ffffff"
     bordercolor="#666666"
     borderopacity="1.0"
     inkscape:pageopacity="0.0"
     inkscape:pageshadow="2"
     inkscape:zoom="0.06087625"
     inkscape:cx="579.31259"
     inkscape:cy="-1822.4479"
     inkscape:document-units="px"
     inkscape:current-layer="layer1"
     showgrid="false"
     units="px"
     inkscape:window-width="1022"
     inkscape:window-height="555"
     inkscape:window-x="0"
     inkscape:window-y="20"
     inkscape:window-maximized="1"
     borderlayer="true" />
  <metadata
     id="metadata7">
    <rdf:RDF>
      <cc:Work
         rdf:about="">
        <dc:format>image/svg+xml</dc:format>
        <dc:type
           rdf:resource="http://purl.org/dc/dcmitype/StillImage" />
        <dc:title />
      </cc:Work>
    </rdf:RDF>
  </metadata>
  <g
     inkscape:label="Capa 1"
     inkscape:groupmode="layer"
     id="layer1"
     transform="translate(0,-252.36216)">
    <ellipse
       style="color:#000000;clip-rule:nonzero;display:inline;overflow:visible;visibility:visible;opacity:1;isolation:auto;mix-blend-mode:normal;color-interpolation:sRGB;color-interpolation-filters:linearRGB;solid-color:#000000;solid-opacity:1;fill:#ffffff;fill-opacity:1;fill-rule:evenodd;stroke:#000000;stroke-width:6;stroke-linecap:round;stroke-linejoin:miter;stroke-miterlimit:4;stroke-dasharray:none;stroke-dashoffset:0;stroke-opacity:1;marker:none;color-rendering:auto;image-rendering:auto;shape-rendering:auto;text-rendering:auto;enable-background:accumulate"
       id="path3336"
       cx="-939.44189"
       cy="304.84927"
       rx="82.832512"
       ry="64.649765" />
    <ellipse
       style="color:#000000;clip-rule:nonzero;display:inline;overflow:visible;visibility:visible;opacity:1;isolation:auto;mix-blend-mode:normal;color-interpolation:sRGB;color-interpolation-filters:linearRGB;solid-color:#000000;solid-opacity:1;fill:#ffffff;fill-opacity:1;fill-rule:evenodd;stroke:#000000;stroke-width:6;stroke-linecap:round;stroke-linejoin:miter;stroke-miterlimit:4;stroke-dasharray:none;stroke-dashoffset:0;stroke-opacity:1;marker:none;color-rendering:auto;image-rendering:auto;shape-rendering:auto;text-rendering:auto;enable-background:accumulate"
       id="ellipse3340"
       cx="-931.36066"
       cy="482.63611"
       rx="82.832512"
       ry="64.649765" />
    <ellipse
       style="color:#000000;clip-rule:nonzero;display:inline;overflow:visible;visibility:visible;opacity:1;isolation:auto;mix-blend-mode:normal;color-interpolation:sRGB;color-interpolation-filters:linearRGB;solid-color:#000000;solid-opacity:1;fill:#ffffff;fill-opacity:1;fill-rule:evenodd;stroke:#000000;stroke-width:6;stroke-linecap:round;stroke-linejoin:miter;stroke-miterlimit:4;stroke-dasharray:none;stroke-dashoffset:0;stroke-opacity:1;marker:none;color-rendering:auto;image-rendering:auto;shape-rendering:auto;text-rendering:auto;enable-background:accumulate"
       id="ellipse3342"
       cx="-959.64496"
       cy="676.58539"
       rx="82.832512"
       ry="64.649765" />
    <ellipse
       style="color:#000000;clip-rule:nonzero;display:inline;overflow:visible;visibility:visible;opacity:1;isolation:auto;mix-blend-mode:normal;color-interpolation:sRGB;color-interpolation-filters:linearRGB;solid-color:#000000;solid-opacity:1;fill:#ffffff;fill-opacity:1;fill-rule:evenodd;stroke:#000000;stroke-width:6;stroke-linecap:round;stroke-linejoin:miter;stroke-miterlimit:4;stroke-dasharray:none;stroke-dashoffset:0;stroke-opacity:1;marker:none;color-rendering:auto;image-rendering:auto;shape-rendering:auto;text-rendering:auto;enable-background:accumulate"
       id="ellipse3344"
       cx="-939.44189"
       cy="850.33167"
       rx="82.832512"
       ry="64.649765" />
    <ellipse
       ry="64.649765"
       rx="82.832512"
       cy="1028.1185"
       cx="-939.44189"
       id="ellipse3338"
       style="color:#000000;clip-rule:nonzero;display:inline;overflow:visible;visibility:visible;opacity:1;isolation:auto;mix-blend-mode:normal;color-interpolation:sRGB;color-interpolation-filters:linearRGB;solid-color:#000000;solid-opacity:1;fill:#ffffff;fill-opacity:1;fill-rule:evenodd;stroke:#000000;stroke-width:6;stroke-linecap:round;stroke-linejoin:miter;stroke-miterlimit:4;stroke-dasharray:none;stroke-dashoffset:0;stroke-opacity:1;marker:none;color-rendering:auto;image-rendering:auto;shape-rendering:auto;text-rendering:auto;enable-background:accumulate" />
    <rect
       style="color:#000000;clip-rule:nonzero;display:inline;overflow:visible;visibility:visible;opacity:1;isolation:auto;mix-blend-mode:normal;color-interpolation:sRGB;color-interpolation-filters:linearRGB;solid-color:#000000;solid-opacity:1;fill:#ffffff;fill-opacity:1;fill-rule:evenodd;stroke:#008000;stroke-width:6;stroke-linecap:round;stroke-linejoin:miter;stroke-miterlimit:4;stroke-dasharray:none;stroke-dashoffset:0;stroke-opacity:1;marker:none;color-rendering:auto;image-rendering:auto;shape-rendering:auto;text-rendering:auto;enable-background:accumulate"
       id="rect4239"
       width="1379.3604"
       height="924.20618"
       x="-55.591351"
       y="190.69623"
       ry="10.3616" />
    <rect
       style="color:#000000;clip-rule:nonzero;display:inline;overflow:visible;visibility:visible;opacity:1;isolation:auto;mix-blend-mode:normal;color-interpolation:sRGB;color-interpolation-filters:linearRGB;solid-color:#000000;solid-opacity:1;fill:#11c1f3;fill-opacity:1;fill-rule:evenodd;stroke:none;stroke-width:6;stroke-linecap:round;stroke-linejoin:miter;stroke-miterlimit:4;stroke-dasharray:none;stroke-dashoffset:0;stroke-opacity:1;marker:none;filter:url(#filter4167);color-rendering:auto;image-rendering:auto;shape-rendering:auto;text-rendering:auto;enable-background:accumulate"
       id="rect3365"
       width="1446.5385"
       height="193.9493"
       x="-84.852814"
       y="191.67159"
       ry="6.9391599"
       transform="matrix(1,0,0,1.4932033,0,-160.47818)" />
    <g
       id="g4416"
       inkscape:export-filename="./g4416Ojito.png"
       inkscape:export-xdpi="54.639999"
       inkscape:export-ydpi="54.639999">
      <circle
         r="343.1835"
         cy="1807.1078"
         cx="-541.22766"
         id="path4241"
         style="color:#000000;clip-rule:nonzero;display:inline;overflow:visible;visibility:visible;opacity:1;isolation:auto;mix-blend-mode:normal;color-interpolation:sRGB;color-interpolation-filters:linearRGB;solid-color:#000000;solid-opacity:1;fill:#552200;fill-opacity:1;fill-rule:evenodd;stroke:#28170b;stroke-width:6;stroke-linecap:round;stroke-linejoin:miter;stroke-miterlimit:4;stroke-dasharray:none;stroke-dashoffset:0;stroke-opacity:1;marker:none;color-rendering:auto;image-rendering:auto;shape-rendering:auto;text-rendering:auto;enable-background:accumulate" />
      <g
         transform="matrix(1.0685459,0,0,1.0685459,37.099031,-123.87013)"
         id="g4334">
        <g
           id="g4297"
           style="fill:#784421"
           transform="matrix(1.0452191,0,0,1.0452191,616.13983,-819.02792)">
          <path
             style="fill:#784421;fill-rule:evenodd;stroke:none;stroke-width:1px;stroke-linecap:butt;stroke-linejoin:miter;stroke-opacity:1"
             d="m -1406.855,2467.9028 c 0,0 199.8787,27.2441 299.9268,42.1462 100.0481,14.9021 299.19012,47.0916 299.19012,47.0916 0,0 -199.87862,-27.2441 -299.92672,-42.1462 -100.0482,-14.9021 -299.1902,-47.0916 -299.1902,-47.0916 z"
             id="path4255"
             inkscape:connector-curvature="0"
             sodipodi:nodetypes="cscsc" />
          <path
             style="fill:#784421;fill-rule:evenodd;stroke:none;stroke-width:1px;stroke-linecap:butt;stroke-linejoin:miter;stroke-opacity:1"
             d="m -1406.8329,2557.2882 c 0,0 199.1261,-32.2877 299.1668,-47.239 100.0408,-14.9514 299.90599,-42.294 299.90599,-42.294 0,0 -199.12609,32.2877 -299.16689,47.239 -100.0408,14.9514 -299.9059,42.294 -299.9059,42.294 z"
             id="path4257"
             inkscape:connector-curvature="0"
             sodipodi:nodetypes="cscsc" />
          <path
             style="fill:#784421;fill-rule:evenodd;stroke:none;stroke-width:1px;stroke-linecap:butt;stroke-linejoin:miter;stroke-opacity:1"
             d="m -1378.5916,2647.1511 c 0,0 179.5752,-91.9046 270.1838,-136.8688 90.6085,-44.9643 272.40636,-132.39 272.40636,-132.39 0,0 -179.57516,91.9046 -270.18376,136.8688 -90.6086,44.9643 -272.4064,132.39 -272.4064,132.39 z"
             id="path4259"
             inkscape:connector-curvature="0"
             sodipodi:nodetypes="cscsc" />
          <path
             style="fill:#784421;fill-rule:evenodd;stroke:none;stroke-width:1px;stroke-linecap:butt;stroke-linejoin:miter;stroke-opacity:1"
             d="m -1240.7623,2784.3911 c 0,0 86.646,-182.1707 131.2216,-272.9711 44.5756,-90.8004 135.71,-270.7677 135.71,-270.7677 0,0 -86.646,182.1707 -131.2217,272.9711 -44.5756,90.8004 -135.7099,270.7677 -135.7099,270.7677 z"
             id="path4261"
             inkscape:connector-curvature="0"
             sodipodi:nodetypes="cscsc" />
          <path
             style="fill:#784421;fill-rule:evenodd;stroke:none;stroke-width:1px;stroke-linecap:butt;stroke-linejoin:miter;stroke-opacity:1"
             d="m -1183.8864,2805.5406 c 0,0 48.5912,-195.7871 74.1711,-293.6511 25.5799,-97.864 79.0087,-292.3867 79.0087,-292.3867 0,0 -48.5913,195.7871 -74.1712,293.6511 -25.5799,97.864 -79.0086,292.3867 -79.0086,292.3867 z"
             id="path4263"
             inkscape:connector-curvature="0"
             sodipodi:nodetypes="cscsc" />
          <path
             style="fill:#784421;fill-rule:evenodd;stroke:none;stroke-width:1px;stroke-linecap:butt;stroke-linejoin:miter;stroke-opacity:1"
             d="m -1064.2731,2812.3135 c 0,0 -31.1289,-199.3106 -45.4981,-299.4367 -14.3692,-100.126 -40.5487,-300.1469 -40.5487,-300.1469 0,0 31.1288,199.3106 45.498,299.4367 14.3692,100.126 40.5488,300.1469 40.5488,300.1469 z"
             id="path4265"
             inkscape:connector-curvature="0"
             sodipodi:nodetypes="cscsc" />
          <path
             style="fill:#784421;fill-rule:evenodd;stroke:none;stroke-width:1px;stroke-linecap:butt;stroke-linejoin:miter;stroke-opacity:1"
             d="m -931.83534,2759.3809 c 0,0 -118.89746,-162.9635 -177.49886,-245.4108 -58.6015,-82.4474 -173.4235,-248.3076 -173.4235,-248.3076 0,0 118.8974,162.9635 177.4989,245.4108 58.6014,82.4474 173.42346,248.3076 173.42346,248.3076 z"
             id="path4267"
             inkscape:connector-curvature="0"
             sodipodi:nodetypes="cscsc" />
          <path
             style="fill:#784421;fill-rule:evenodd;stroke:none;stroke-width:1px;stroke-linecap:butt;stroke-linejoin:miter;stroke-opacity:1"
             d="m -834.88645,2644.8805 c 0,0 -182.52165,-85.9043 -273.50265,-130.1102 -90.981,-44.2059 -271.3175,-134.6074 -271.3175,-134.6074 0,0 182.5217,85.9043 273.5026,130.1102 90.981,44.2059 271.31755,134.6074 271.31755,134.6074 z"
             id="path4269"
             inkscape:connector-curvature="0"
             sodipodi:nodetypes="cscsc" />
          <path
             style="fill:#784421;fill-rule:evenodd;stroke:none;stroke-width:1px;stroke-linecap:butt;stroke-linejoin:miter;stroke-opacity:1"
             d="m -917.10316,2276.8257 c 0,0 -124.72604,158.547 -188.24784,237.266 -63.5217,78.719 -192.1389,234.126 -192.1389,234.126 0,0 124.726,-158.547 188.2478,-237.266 63.5218,-78.719 192.13894,-234.126 192.13894,-234.126 z"
             id="path4271"
             inkscape:connector-curvature="0"
             sodipodi:nodetypes="cscsc" />
          <path
             sodipodi:nodetypes="cscsc"
             inkscape:connector-curvature="0"
             id="path4245"
             d="m -881.66099,2310.4952 c 0,0 -148.60891,136.4151 -223.96791,203.889 -75.3589,67.4739 -227.3032,200.164 -227.3032,200.164 0,0 148.609,-136.4151 223.9679,-203.889 75.359,-67.4739 227.30321,-200.164 227.30321,-200.164 z"
             style="fill:#784421;fill-rule:evenodd;stroke:none;stroke-width:1px;stroke-linecap:butt;stroke-linejoin:miter;stroke-opacity:1" />
        </g>
        <g
           style="fill:#803300;stroke:#786721;stroke-width:0.89536351"
           id="g4309"
           transform="matrix(-0.7911085,-0.46254289,0.46254289,-0.7911085,-2579.3684,3282.613)">
          <path
             sodipodi:nodetypes="cscsc"
             inkscape:connector-curvature="0"
             id="path4311"
             d="m -1406.855,2467.9028 c 0,0 199.8787,27.2441 299.9268,42.1462 100.0481,14.9021 299.19012,47.0916 299.19012,47.0916 0,0 -199.87862,-27.2441 -299.92672,-42.1462 -100.0482,-14.9021 -299.1902,-47.0916 -299.1902,-47.0916 z"
             style="fill:#803300;fill-rule:evenodd;stroke:#786721;stroke-width:0.89536351px;stroke-linecap:butt;stroke-linejoin:miter;stroke-opacity:1" />
          <path
             sodipodi:nodetypes="cscsc"
             inkscape:connector-curvature="0"
             id="path4313"
             d="m -1406.8329,2557.2882 c 0,0 199.1261,-32.2877 299.1668,-47.239 100.0408,-14.9514 299.90599,-42.294 299.90599,-42.294 0,0 -199.12609,32.2877 -299.16689,47.239 -100.0408,14.9514 -299.9059,42.294 -299.9059,42.294 z"
             style="fill:#803300;fill-rule:evenodd;stroke:#786721;stroke-width:0.89536351px;stroke-linecap:butt;stroke-linejoin:miter;stroke-opacity:1" />
          <path
             sodipodi:nodetypes="cscsc"
             inkscape:connector-curvature="0"
             id="path4315"
             d="m -1378.5916,2647.1511 c 0,0 179.5752,-91.9046 270.1838,-136.8688 90.6085,-44.9643 272.40636,-132.39 272.40636,-132.39 0,0 -179.57516,91.9046 -270.18376,136.8688 -90.6086,44.9643 -272.4064,132.39 -272.4064,132.39 z"
             style="fill:#803300;fill-rule:evenodd;stroke:#786721;stroke-width:0.89536351px;stroke-linecap:butt;stroke-linejoin:miter;stroke-opacity:1" />
          <path
             sodipodi:nodetypes="cscsc"
             inkscape:connector-curvature="0"
             id="path4317"
             d="m -1240.7623,2784.3911 c 0,0 86.646,-182.1707 131.2216,-272.9711 44.5756,-90.8004 135.71,-270.7677 135.71,-270.7677 0,0 -86.646,182.1707 -131.2217,272.9711 -44.5756,90.8004 -135.7099,270.7677 -135.7099,270.7677 z"
             style="fill:#803300;fill-rule:evenodd;stroke:#786721;stroke-width:0.89536351px;stroke-linecap:butt;stroke-linejoin:miter;stroke-opacity:1" />
          <path
             sodipodi:nodetypes="cscsc"
             inkscape:connector-curvature="0"
             id="path4319"
             d="m -1183.8864,2805.5406 c 0,0 48.5912,-195.7871 74.1711,-293.6511 25.5799,-97.864 79.0087,-292.3867 79.0087,-292.3867 0,0 -48.5913,195.7871 -74.1712,293.6511 -25.5799,97.864 -79.0086,292.3867 -79.0086,292.3867 z"
             style="fill:#803300;fill-rule:evenodd;stroke:#786721;stroke-width:0.89536351px;stroke-linecap:butt;stroke-linejoin:miter;stroke-opacity:1" />
          <path
             sodipodi:nodetypes="cscsc"
             inkscape:connector-curvature="0"
             id="path4321"
             d="m -1064.2731,2812.3135 c 0,0 -31.1289,-199.3106 -45.4981,-299.4367 -14.3692,-100.126 -40.5487,-300.1469 -40.5487,-300.1469 0,0 31.1288,199.3106 45.498,299.4367 14.3692,100.126 40.5488,300.1469 40.5488,300.1469 z"
             style="fill:#803300;fill-rule:evenodd;stroke:#786721;stroke-width:0.89536351px;stroke-linecap:butt;stroke-linejoin:miter;stroke-opacity:1" />
          <path
             sodipodi:nodetypes="cscsc"
             inkscape:connector-curvature="0"
             id="path4323"
             d="m -931.83534,2759.3809 c 0,0 -118.89746,-162.9635 -177.49886,-245.4108 -58.6015,-82.4474 -173.4235,-248.3076 -173.4235,-248.3076 0,0 118.8974,162.9635 177.4989,245.4108 58.6014,82.4474 173.42346,248.3076 173.42346,248.3076 z"
             style="fill:#803300;fill-rule:evenodd;stroke:#786721;stroke-width:0.89536351px;stroke-linecap:butt;stroke-linejoin:miter;stroke-opacity:1" />
          <path
             sodipodi:nodetypes="cscsc"
             inkscape:connector-curvature="0"
             id="path4325"
             d="m -834.88645,2644.8805 c 0,0 -182.52165,-85.9043 -273.50265,-130.1102 -90.981,-44.2059 -271.3175,-134.6074 -271.3175,-134.6074 0,0 182.5217,85.9043 273.5026,130.1102 90.981,44.2059 271.31755,134.6074 271.31755,134.6074 z"
             style="fill:#803300;fill-rule:evenodd;stroke:#786721;stroke-width:0.89536351px;stroke-linecap:butt;stroke-linejoin:miter;stroke-opacity:1" />
          <path
             sodipodi:nodetypes="cscsc"
             inkscape:connector-curvature="0"
             id="path4327"
             d="m -917.10316,2276.8257 c 0,0 -124.72604,158.547 -188.24784,237.266 -63.5217,78.719 -192.1389,234.126 -192.1389,234.126 0,0 124.726,-158.547 188.2478,-237.266 63.5218,-78.719 192.13894,-234.126 192.13894,-234.126 z"
             style="fill:#803300;fill-rule:evenodd;stroke:#786721;stroke-width:0.89536351px;stroke-linecap:butt;stroke-linejoin:miter;stroke-opacity:1" />
          <path
             style="fill:#803300;fill-rule:evenodd;stroke:#786721;stroke-width:0.89536351px;stroke-linecap:butt;stroke-linejoin:miter;stroke-opacity:1"
             d="m -881.66099,2310.4952 c 0,0 -148.60891,136.4151 -223.96791,203.889 -75.3589,67.4739 -227.3032,200.164 -227.3032,200.164 0,0 148.609,-136.4151 223.9679,-203.889 75.359,-67.4739 227.30321,-200.164 227.30321,-200.164 z"
             id="path4329"
             inkscape:connector-curvature="0"
             sodipodi:nodetypes="cscsc" />
        </g>
      </g>
      <g
         id="g4370"
         transform="matrix(1.0118614,0.34340475,-0.34340475,1.0118614,626.98921,164.425)">
        <g
           transform="matrix(1.0452191,0,0,1.0452191,616.13983,-819.02792)"
           style="fill:#784421"
           id="g4372">
          <path
             sodipodi:nodetypes="cscsc"
             inkscape:connector-curvature="0"
             id="path4374"
             d="m -1406.855,2467.9028 c 0,0 199.8787,27.2441 299.9268,42.1462 100.0481,14.9021 299.19012,47.0916 299.19012,47.0916 0,0 -199.87862,-27.2441 -299.92672,-42.1462 -100.0482,-14.9021 -299.1902,-47.0916 -299.1902,-47.0916 z"
             style="fill:#784421;fill-rule:evenodd;stroke:none;stroke-width:1px;stroke-linecap:butt;stroke-linejoin:miter;stroke-opacity:1" />
          <path
             sodipodi:nodetypes="cscsc"
             inkscape:connector-curvature="0"
             id="path4376"
             d="m -1406.8329,2557.2882 c 0,0 199.1261,-32.2877 299.1668,-47.239 100.0408,-14.9514 299.90599,-42.294 299.90599,-42.294 0,0 -199.12609,32.2877 -299.16689,47.239 -100.0408,14.9514 -299.9059,42.294 -299.9059,42.294 z"
             style="fill:#784421;fill-rule:evenodd;stroke:none;stroke-width:1px;stroke-linecap:butt;stroke-linejoin:miter;stroke-opacity:1" />
          <path
             sodipodi:nodetypes="cscsc"
             inkscape:connector-curvature="0"
             id="path4378"
             d="m -1378.5916,2647.1511 c 0,0 179.5752,-91.9046 270.1838,-136.8688 90.6085,-44.9643 272.40636,-132.39 272.40636,-132.39 0,0 -179.57516,91.9046 -270.18376,136.8688 -90.6086,44.9643 -272.4064,132.39 -272.4064,132.39 z"
             style="fill:#784421;fill-rule:evenodd;stroke:none;stroke-width:1px;stroke-linecap:butt;stroke-linejoin:miter;stroke-opacity:1" />
          <path
             sodipodi:nodetypes="cscsc"
             inkscape:connector-curvature="0"
             id="path4380"
             d="m -1240.7623,2784.3911 c 0,0 86.646,-182.1707 131.2216,-272.9711 44.5756,-90.8004 135.71,-270.7677 135.71,-270.7677 0,0 -86.646,182.1707 -131.2217,272.9711 -44.5756,90.8004 -135.7099,270.7677 -135.7099,270.7677 z"
             style="fill:#784421;fill-rule:evenodd;stroke:none;stroke-width:1px;stroke-linecap:butt;stroke-linejoin:miter;stroke-opacity:1" />
          <path
             sodipodi:nodetypes="cscsc"
             inkscape:connector-curvature="0"
             id="path4382"
             d="m -1183.8864,2805.5406 c 0,0 48.5912,-195.7871 74.1711,-293.6511 25.5799,-97.864 79.0087,-292.3867 79.0087,-292.3867 0,0 -48.5913,195.7871 -74.1712,293.6511 -25.5799,97.864 -79.0086,292.3867 -79.0086,292.3867 z"
             style="fill:#784421;fill-rule:evenodd;stroke:none;stroke-width:1px;stroke-linecap:butt;stroke-linejoin:miter;stroke-opacity:1" />
          <path
             sodipodi:nodetypes="cscsc"
             inkscape:connector-curvature="0"
             id="path4384"
             d="m -1064.2731,2812.3135 c 0,0 -31.1289,-199.3106 -45.4981,-299.4367 -14.3692,-100.126 -40.5487,-300.1469 -40.5487,-300.1469 0,0 31.1288,199.3106 45.498,299.4367 14.3692,100.126 40.5488,300.1469 40.5488,300.1469 z"
             style="fill:#784421;fill-rule:evenodd;stroke:none;stroke-width:1px;stroke-linecap:butt;stroke-linejoin:miter;stroke-opacity:1" />
          <path
             sodipodi:nodetypes="cscsc"
             inkscape:connector-curvature="0"
             id="path4386"
             d="m -931.83534,2759.3809 c 0,0 -118.89746,-162.9635 -177.49886,-245.4108 -58.6015,-82.4474 -173.4235,-248.3076 -173.4235,-248.3076 0,0 118.8974,162.9635 177.4989,245.4108 58.6014,82.4474 173.42346,248.3076 173.42346,248.3076 z"
             style="fill:#784421;fill-rule:evenodd;stroke:none;stroke-width:1px;stroke-linecap:butt;stroke-linejoin:miter;stroke-opacity:1" />
          <path
             sodipodi:nodetypes="cscsc"
             inkscape:connector-curvature="0"
             id="path4388"
             d="m -834.88645,2644.8805 c 0,0 -182.52165,-85.9043 -273.50265,-130.1102 -90.981,-44.2059 -271.3175,-134.6074 -271.3175,-134.6074 0,0 182.5217,85.9043 273.5026,130.1102 90.981,44.2059 271.31755,134.6074 271.31755,134.6074 z"
             style="fill:#784421;fill-rule:evenodd;stroke:none;stroke-width:1px;stroke-linecap:butt;stroke-linejoin:miter;stroke-opacity:1" />
          <path
             sodipodi:nodetypes="cscsc"
             inkscape:connector-curvature="0"
             id="path4390"
             d="m -917.10316,2276.8257 c 0,0 -124.72604,158.547 -188.24784,237.266 -63.5217,78.719 -192.1389,234.126 -192.1389,234.126 0,0 124.726,-158.547 188.2478,-237.266 63.5218,-78.719 192.13894,-234.126 192.13894,-234.126 z"
             style="fill:#784421;fill-rule:evenodd;stroke:none;stroke-width:1px;stroke-linecap:butt;stroke-linejoin:miter;stroke-opacity:1" />
          <path
             style="fill:#784421;fill-rule:evenodd;stroke:none;stroke-width:1px;stroke-linecap:butt;stroke-linejoin:miter;stroke-opacity:1"
             d="m -881.66099,2310.4952 c 0,0 -148.60891,136.4151 -223.96791,203.889 -75.3589,67.4739 -227.3032,200.164 -227.3032,200.164 0,0 148.609,-136.4151 223.9679,-203.889 75.359,-67.4739 227.30321,-200.164 227.30321,-200.164 z"
             id="path4392"
             inkscape:connector-curvature="0"
             sodipodi:nodetypes="cscsc" />
        </g>
        <g
           transform="matrix(-0.7911085,-0.46254289,0.46254289,-0.7911085,-2579.3684,3282.613)"
           id="g4394"
           style="fill:#803300;stroke:#786721;stroke-width:0.89536351">
          <path
             style="fill:#803300;fill-rule:evenodd;stroke:#786721;stroke-width:0.89536351px;stroke-linecap:butt;stroke-linejoin:miter;stroke-opacity:1"
             d="m -1406.855,2467.9028 c 0,0 199.8787,27.2441 299.9268,42.1462 100.0481,14.9021 299.19012,47.0916 299.19012,47.0916 0,0 -199.87862,-27.2441 -299.92672,-42.1462 -100.0482,-14.9021 -299.1902,-47.0916 -299.1902,-47.0916 z"
             id="path4396"
             inkscape:connector-curvature="0"
             sodipodi:nodetypes="cscsc" />
          <path
             style="fill:#803300;fill-rule:evenodd;stroke:#786721;stroke-width:0.89536351px;stroke-linecap:butt;stroke-linejoin:miter;stroke-opacity:1"
             d="m -1406.8329,2557.2882 c 0,0 199.1261,-32.2877 299.1668,-47.239 100.0408,-14.9514 299.90599,-42.294 299.90599,-42.294 0,0 -199.12609,32.2877 -299.16689,47.239 -100.0408,14.9514 -299.9059,42.294 -299.9059,42.294 z"
             id="path4398"
             inkscape:connector-curvature="0"
             sodipodi:nodetypes="cscsc" />
          <path
             style="fill:#803300;fill-rule:evenodd;stroke:#786721;stroke-width:0.89536351px;stroke-linecap:butt;stroke-linejoin:miter;stroke-opacity:1"
             d="m -1378.5916,2647.1511 c 0,0 179.5752,-91.9046 270.1838,-136.8688 90.6085,-44.9643 272.40636,-132.39 272.40636,-132.39 0,0 -179.57516,91.9046 -270.18376,136.8688 -90.6086,44.9643 -272.4064,132.39 -272.4064,132.39 z"
             id="path4400"
             inkscape:connector-curvature="0"
             sodipodi:nodetypes="cscsc" />
          <path
             style="fill:#803300;fill-rule:evenodd;stroke:#786721;stroke-width:0.89536351px;stroke-linecap:butt;stroke-linejoin:miter;stroke-opacity:1"
             d="m -1240.7623,2784.3911 c 0,0 86.646,-182.1707 131.2216,-272.9711 44.5756,-90.8004 135.71,-270.7677 135.71,-270.7677 0,0 -86.646,182.1707 -131.2217,272.9711 -44.5756,90.8004 -135.7099,270.7677 -135.7099,270.7677 z"
             id="path4402"
             inkscape:connector-curvature="0"
             sodipodi:nodetypes="cscsc" />
          <path
             style="fill:#803300;fill-rule:evenodd;stroke:#786721;stroke-width:0.89536351px;stroke-linecap:butt;stroke-linejoin:miter;stroke-opacity:1"
             d="m -1183.8864,2805.5406 c 0,0 48.5912,-195.7871 74.1711,-293.6511 25.5799,-97.864 79.0087,-292.3867 79.0087,-292.3867 0,0 -48.5913,195.7871 -74.1712,293.6511 -25.5799,97.864 -79.0086,292.3867 -79.0086,292.3867 z"
             id="path4404"
             inkscape:connector-curvature="0"
             sodipodi:nodetypes="cscsc" />
          <path
             style="fill:#803300;fill-rule:evenodd;stroke:#786721;stroke-width:0.89536351px;stroke-linecap:butt;stroke-linejoin:miter;stroke-opacity:1"
             d="m -1064.2731,2812.3135 c 0,0 -31.1289,-199.3106 -45.4981,-299.4367 -14.3692,-100.126 -40.5487,-300.1469 -40.5487,-300.1469 0,0 31.1288,199.3106 45.498,299.4367 14.3692,100.126 40.5488,300.1469 40.5488,300.1469 z"
             id="path4406"
             inkscape:connector-curvature="0"
             sodipodi:nodetypes="cscsc" />
          <path
             style="fill:#803300;fill-rule:evenodd;stroke:#786721;stroke-width:0.89536351px;stroke-linecap:butt;stroke-linejoin:miter;stroke-opacity:1"
             d="m -931.83534,2759.3809 c 0,0 -118.89746,-162.9635 -177.49886,-245.4108 -58.6015,-82.4474 -173.4235,-248.3076 -173.4235,-248.3076 0,0 118.8974,162.9635 177.4989,245.4108 58.6014,82.4474 173.42346,248.3076 173.42346,248.3076 z"
             id="path4408"
             inkscape:connector-curvature="0"
             sodipodi:nodetypes="cscsc" />
          <path
             style="fill:#803300;fill-rule:evenodd;stroke:#786721;stroke-width:0.89536351px;stroke-linecap:butt;stroke-linejoin:miter;stroke-opacity:1"
             d="m -834.88645,2644.8805 c 0,0 -182.52165,-85.9043 -273.50265,-130.1102 -90.981,-44.2059 -271.3175,-134.6074 -271.3175,-134.6074 0,0 182.5217,85.9043 273.5026,130.1102 90.981,44.2059 271.31755,134.6074 271.31755,134.6074 z"
             id="path4410"
             inkscape:connector-curvature="0"
             sodipodi:nodetypes="cscsc" />
          <path
             style="fill:#803300;fill-rule:evenodd;stroke:#786721;stroke-width:0.89536351px;stroke-linecap:butt;stroke-linejoin:miter;stroke-opacity:1"
             d="m -917.10316,2276.8257 c 0,0 -124.72604,158.547 -188.24784,237.266 -63.5217,78.719 -192.1389,234.126 -192.1389,234.126 0,0 124.726,-158.547 188.2478,-237.266 63.5218,-78.719 192.13894,-234.126 192.13894,-234.126 z"
             id="path4412"
             inkscape:connector-curvature="0"
             sodipodi:nodetypes="cscsc" />
          <path
             sodipodi:nodetypes="cscsc"
             inkscape:connector-curvature="0"
             id="path4414"
             d="m -881.66099,2310.4952 c 0,0 -148.60891,136.4151 -223.96791,203.889 -75.3589,67.4739 -227.3032,200.164 -227.3032,200.164 0,0 148.609,-136.4151 223.9679,-203.889 75.359,-67.4739 227.30321,-200.164 227.30321,-200.164 z"
             style="fill:#803300;fill-rule:evenodd;stroke:#786721;stroke-width:0.89536351px;stroke-linecap:butt;stroke-linejoin:miter;stroke-opacity:1" />
        </g>
      </g>
      <circle
         r="110.97226"
         cy="1807.1079"
         cx="-541.22772"
         id="path4243"
         style="color:#000000;clip-rule:nonzero;display:inline;overflow:visible;visibility:visible;opacity:1;isolation:auto;mix-blend-mode:normal;color-interpolation:sRGB;color-interpolation-filters:linearRGB;solid-color:#000000;solid-opacity:1;fill:#000000;fill-opacity:1;fill-rule:evenodd;stroke:none;stroke-width:6;stroke-linecap:round;stroke-linejoin:miter;stroke-miterlimit:4;stroke-dasharray:none;stroke-dashoffset:0;stroke-opacity:1;marker:none;color-rendering:auto;image-rendering:auto;shape-rendering:auto;text-rendering:auto;enable-background:accumulate" />
      <path
         sodipodi:nodetypes="sszs"
         inkscape:connector-curvature="0"
         id="circle4331"
         d="m -286.04273,1713.0811 c 0,155.1076 -491.10043,183.8315 -493.64645,0 -1.46898,-106.0638 42.17444,-230.1299 238.46147,-230.1299 196.28702,0 255.18498,118.2585 255.18498,230.1299 z"
         style="color:#000000;clip-rule:nonzero;display:inline;overflow:visible;visibility:visible;opacity:0.22000002;isolation:auto;mix-blend-mode:normal;color-interpolation:sRGB;color-interpolation-filters:linearRGB;solid-color:#000000;solid-opacity:1;fill:#f4e3d7;fill-opacity:1;fill-rule:evenodd;stroke:none;stroke-width:6;stroke-linecap:round;stroke-linejoin:miter;stroke-miterlimit:4;stroke-dasharray:none;stroke-dashoffset:0;stroke-opacity:1;marker:none;color-rendering:auto;image-rendering:auto;shape-rendering:auto;text-rendering:auto;enable-background:accumulate" />
      <circle
         style="color:#000000;clip-rule:nonzero;display:inline;overflow:visible;visibility:visible;opacity:1;isolation:auto;mix-blend-mode:normal;color-interpolation:sRGB;color-interpolation-filters:linearRGB;solid-color:#000000;solid-opacity:1;fill:none;fill-opacity:1;fill-rule:evenodd;stroke:#28170b;stroke-width:33;stroke-linecap:round;stroke-linejoin:miter;stroke-miterlimit:4;stroke-dasharray:none;stroke-dashoffset:0;stroke-opacity:1;marker:none;color-rendering:auto;image-rendering:auto;shape-rendering:auto;text-rendering:auto;enable-background:accumulate;filter:url(#filter4360)"
         id="circle4358"
         cx="-541.22766"
         cy="1807.1078"
         r="343.1835" />
    </g>
    <g
       id="g4490">
      <g
         id="g4480">
        <circle
           style="color:#000000;clip-rule:nonzero;display:inline;overflow:visible;visibility:visible;opacity:1;isolation:auto;mix-blend-mode:normal;color-interpolation:sRGB;color-interpolation-filters:linearRGB;solid-color:#000000;solid-opacity:1;fill:#784421;fill-opacity:1;fill-rule:evenodd;stroke:none;stroke-width:33;stroke-linecap:round;stroke-linejoin:miter;stroke-miterlimit:4;stroke-dasharray:none;stroke-dashoffset:0;stroke-opacity:1;marker:none;color-rendering:auto;image-rendering:auto;shape-rendering:auto;text-rendering:auto;enable-background:accumulate"
           id="path4468"
           cx="-1669.4731"
           cy="1801.3156"
           r="343.13281" />
        <circle
           r="140.22255"
           cy="1480.0201"
           cx="-1669.4731"
           id="circle4474"
           style="color:#000000;clip-rule:nonzero;display:inline;overflow:visible;visibility:visible;opacity:1;isolation:auto;mix-blend-mode:normal;color-interpolation:sRGB;color-interpolation-filters:linearRGB;solid-color:#000000;solid-opacity:1;fill:#ffffff;fill-opacity:1;fill-rule:evenodd;stroke:none;stroke-width:33;stroke-linecap:round;stroke-linejoin:miter;stroke-miterlimit:4;stroke-dasharray:none;stroke-dashoffset:0;stroke-opacity:1;marker:none;color-rendering:auto;image-rendering:auto;shape-rendering:auto;text-rendering:auto;enable-background:accumulate" />
      </g>
      <g
         id="g4476">
        <circle
           r="135.27351"
           cy="1801.3156"
           cx="-1669.4731"
           id="circle4470"
           style="color:#000000;clip-rule:nonzero;display:inline;overflow:visible;visibility:visible;opacity:1;isolation:auto;mix-blend-mode:normal;color-interpolation:sRGB;color-interpolation-filters:linearRGB;solid-color:#000000;solid-opacity:1;fill:#000000;fill-opacity:1;fill-rule:evenodd;stroke:none;stroke-width:33;stroke-linecap:round;stroke-linejoin:miter;stroke-miterlimit:4;stroke-dasharray:none;stroke-dashoffset:0;stroke-opacity:1;marker:none;color-rendering:auto;image-rendering:auto;shape-rendering:auto;text-rendering:auto;enable-background:accumulate" />
        <circle
           style="color:#000000;clip-rule:nonzero;display:inline;overflow:visible;visibility:visible;opacity:1;isolation:auto;mix-blend-mode:normal;color-interpolation:sRGB;color-interpolation-filters:linearRGB;solid-color:#000000;solid-opacity:1;fill:#ffffff;fill-opacity:1;fill-rule:evenodd;stroke:none;stroke-width:33;stroke-linecap:round;stroke-linejoin:miter;stroke-miterlimit:4;stroke-dasharray:none;stroke-dashoffset:0;stroke-opacity:1;marker:none;color-rendering:auto;image-rendering:auto;shape-rendering:auto;text-rendering:auto;enable-background:accumulate"
           id="circle4472"
           cx="-1669.4731"
           cy="1730.3794"
           r="64.337402" />
      </g>
    </g>
    <g
       id="g4560"
       transform="translate(-127.77026,23.230957)"
       style="filter:url(#filter4221)"
       inkscape:export-xdpi="89.978508"
       inkscape:export-ydpi="89.978508">
      <g
         inkscape:export-ydpi="59.962051"
         inkscape:export-xdpi="59.962051"
         inkscape:export-filename="SimpleEye.png"
         transform="matrix(0.70710678,0.70710678,-0.70710678,0.70710678,2206.0429,2941.6508)"
         id="g4498">
        <g
           id="g4500">
          <path
             inkscape:connector-curvature="0"
             id="circle4502"
             transform="translate(-18.663965,-960.79554)"
             d="m -1510.998,2449.0547 a 140.22255,140.22255 0 0 1 -139.8106,131.9844 140.22255,140.22255 0 0 1 -139.9238,-131.7657 343.13281,343.13281 0 0 0 -203.209,312.8379 343.13281,343.13281 0 0 0 343.1328,343.1328 343.13281,343.13281 0 0 0 343.1328,-343.1328 343.13281,343.13281 0 0 0 -203.3222,-313.0566 z"
             style="color:#000000;clip-rule:nonzero;display:inline;overflow:visible;visibility:visible;opacity:1;isolation:auto;mix-blend-mode:normal;color-interpolation:sRGB;color-interpolation-filters:linearRGB;solid-color:#000000;solid-opacity:1;fill:#784421;fill-opacity:1;fill-rule:evenodd;stroke:none;stroke-width:33;stroke-linecap:round;stroke-linejoin:miter;stroke-miterlimit:4;stroke-dasharray:none;stroke-dashoffset:0;stroke-opacity:1;marker:none;color-rendering:auto;image-rendering:auto;shape-rendering:auto;text-rendering:auto;enable-background:accumulate" />
        </g>
        <g
           id="g4506">
          <circle
             r="135.27351"
             cy="1801.3156"
             cx="-1669.4731"
             id="circle4508"
             style="color:#000000;clip-rule:nonzero;display:inline;overflow:visible;visibility:visible;opacity:1;isolation:auto;mix-blend-mode:normal;color-interpolation:sRGB;color-interpolation-filters:linearRGB;solid-color:#000000;solid-opacity:1;fill:#000000;fill-opacity:1;fill-rule:evenodd;stroke:none;stroke-width:33;stroke-linecap:round;stroke-linejoin:miter;stroke-miterlimit:4;stroke-dasharray:none;stroke-dashoffset:0;stroke-opacity:1;marker:none;color-rendering:auto;image-rendering:auto;shape-rendering:auto;text-rendering:auto;enable-background:accumulate" />
          <circle
             style="color:#000000;clip-rule:nonzero;display:inline;overflow:visible;visibility:visible;opacity:1;isolation:auto;mix-blend-mode:normal;color-interpolation:sRGB;color-interpolation-filters:linearRGB;solid-color:#000000;solid-opacity:1;fill:#ffffff;fill-opacity:1;fill-rule:evenodd;stroke:none;stroke-width:33;stroke-linecap:round;stroke-linejoin:miter;stroke-miterlimit:4;stroke-dasharray:none;stroke-dashoffset:0;stroke-opacity:1;marker:none;color-rendering:auto;image-rendering:auto;shape-rendering:auto;text-rendering:auto;enable-background:accumulate"
             id="circle4510"
             cx="-1669.4731"
             cy="1730.3794"
             r="64.337402" />
        </g>
        <g
           id="g4513" />
      </g>
    </g>
    <flowRoot
       xml:space="preserve"
       id="flowRoot4342"
       style="font-style:normal;font-weight:normal;font-size:40px;line-height:125%;font-family:sans-serif;letter-spacing:0px;word-spacing:0px;fill:#000000;fill-opacity:1;stroke:none;stroke-width:1px;stroke-linecap:butt;stroke-linejoin:miter;stroke-opacity:1"
       transform="matrix(11.485272,0,0,11.485272,29420.526,-53197.036)"><flowRegion
         id="flowRegion4344"><rect
           id="rect4346"
           width="3860.2903"
           height="673.49744"
           x="-2808.9773"
           y="5087.3862" /></flowRegion><flowPara
         id="flowPara4348">113 309 7901</flowPara></flowRoot>    <text
       xml:space="preserve"
       style="font-style:normal;font-weight:normal;font-size:591.85644531px;line-height:125%;font-family:sans-serif;letter-spacing:0px;word-spacing:0px;fill:#000000;fill-opacity:1;stroke:none;stroke-width:1px;stroke-linecap:butt;stroke-linejoin:miter;stroke-opacity:1"
       x="-2955.2117"
       y="5184.0933"
       id="text4350"
       sodipodi:linespacing="125%"><tspan
         sodipodi:role="line"
         id="tspan4352"
         x="-2955.2117"
         y="5184.0933">tdH</tspan></text>
  </g>
</svg>
